# xmcd CD database file
#
# Track frame offsets:
#	182
#	17612
#	26887
#	44110
#	56915
#	79422
#	90822
#	104280
#	117430
#	131322
#
# Disc length: 2029 seconds
#
# Revision: 0
# Processed by: cddbd v1.4PL0 Copyright (c) Steve Scherf et al.
# Submitted via: CDex 1.51
#
DISCID=8107eb0a
DTITLE=Cheyenne - Devil In Disguise
DYEAR=1993
DGENRE=Country
TTITLE0=Devil In Disguise
TTITLE1=Texas 2-Step
TTITLE2=Reasons I Stay
TTITLE3=I Surrender
TTITLE4=You're The Best Part Of Me
TTITLE5=Sweet Texas Cowgirls
TTITLE6=Crazy Feelin'
TTITLE7=Young and Restless
TTITLE8=This Minute
TTITLE9=It's Over When It's Over
EXTD=YEAR: 1993
EXTT0=
EXTT1=
EXTT2=
EXTT3=
EXTT4=
EXTT5=
EXTT6=
EXTT7=
EXTT8=
EXTT9=
PLAYORDER=
